<svg width="33" height="31" viewBox="0 0 33 31" fill="none" xmlns="http://www.w3.org/2000/svg">
<path fill-rule="evenodd" clip-rule="evenodd" d="M12.5884 3.17594C15.6058 2.50289 18.7674 2.91597 21.5014 4.33923C24.0763 5.67968 26.1102 7.8318 27.2854 10.4401L23.8511 9.54033C23.3169 9.40036 22.7703 9.71999 22.6304 10.2542C22.4904 10.7885 22.81 11.3351 23.3443 11.475L29.1639 12.9997L30.0588 13.2342L30.3621 12.3602L32.1134 7.31291C32.2944 6.79114 32.0182 6.2214 31.4964 6.04036C30.9746 5.85932 30.4049 6.13553 30.2239 6.6573L29.1581 9.72892C27.8049 6.65816 25.4312 4.13023 22.4249 2.56522C19.272 0.923848 15.6289 0.448573 12.153 1.22391C8.67688 1.99928 5.59344 3.97517 3.46161 6.79855C1.32951 9.62228 0.290684 13.1068 0.535629 16.6225C0.780571 20.1381 2.29276 23.4489 4.79536 25.9577C7.29765 28.4661 10.625 30.0076 14.1755 30.3072C17.7259 30.6068 21.2694 29.6452 24.1663 27.5935C27.0634 25.5416 29.1238 22.5337 29.9711 19.111C30.1038 18.5749 29.7768 18.0327 29.2407 17.9C28.7046 17.7672 28.1624 18.0942 28.0297 18.6304C27.2987 21.5831 25.5198 24.1841 23.0103 25.9614C20.5005 27.7389 17.4264 28.5744 14.3437 28.3143C11.2609 28.0541 8.37681 26.716 6.21132 24.5452C4.04615 22.3747 2.74201 19.515 2.5308 16.4835C2.31958 13.452 3.21485 10.4444 5.05772 8.00372C6.90087 5.56268 9.57122 3.84895 12.5884 3.17594ZM17.2052 20.5008C16.0712 20.5008 15.0912 20.0948 14.2372 19.2408L15.5252 18.0368C15.9452 18.4848 16.5472 18.8208 17.2052 18.8208C17.6392 18.8208 18.0592 18.6668 18.3812 18.3728C18.7172 18.0648 18.9272 17.6168 18.9272 17.1128C18.9272 16.5808 18.7032 16.1048 18.3252 15.7828C18.0172 15.5168 17.5972 15.3908 17.1352 15.3908C16.6592 15.3908 16.1132 15.5728 15.6932 15.9228L14.5172 15.7548L15.1472 10.5608H20.3272V12.2408H16.6872L16.5332 13.7808C16.7292 13.7388 17.0232 13.7108 17.2892 13.7108C18.0452 13.7108 18.8852 13.8928 19.5712 14.4528C20.3412 15.0688 20.8172 16.0628 20.8172 17.1128C20.8172 19.0448 19.1792 20.5008 17.2052 20.5008ZM10.8199 12.7448L8.99994 13.7528V11.9608L11.3799 10.5608H12.7099V20.3608H10.8199V12.7448Z" fill="white"/>
</svg>
