<svg width="33" height="31" viewBox="0 0 33 31" fill="none" xmlns="http://www.w3.org/2000/svg">
<path fill-rule="evenodd" clip-rule="evenodd" d="M20.0809 3.17594C17.0635 2.50289 13.9019 2.91597 11.1679 4.33923C8.59297 5.67968 6.55912 7.8318 5.38389 10.4401L8.81817 9.54033C9.35242 9.40036 9.89899 9.71999 10.039 10.2542C10.1789 10.7885 9.8593 11.3351 9.32504 11.475L3.50541 12.9997L2.61049 13.2342L2.30723 12.3602L0.555954 7.31291C0.374913 6.79114 0.651127 6.2214 1.1729 6.04036C1.69467 5.85932 2.2644 6.13553 2.44545 6.6573L3.51122 9.72892C4.86443 6.65816 7.23808 4.13023 10.2444 2.56522C13.3973 0.923848 17.0404 0.448573 20.5163 1.22391C23.9924 1.99928 27.0759 3.97517 29.2077 6.79855C31.3398 9.62228 32.3786 13.1068 32.1337 16.6225C31.8887 20.1381 30.3766 23.4489 27.8739 25.9577C25.3717 28.4661 22.0443 30.0076 18.4938 30.3072C14.9434 30.6068 11.3999 29.6452 8.50304 27.5935C5.60588 25.5416 3.54556 22.5337 2.6982 19.111C2.56548 18.5749 2.89249 18.0327 3.42859 17.9C3.96469 17.7672 4.50687 18.0942 4.63959 18.6304C5.37058 21.5831 7.14949 24.1841 9.65898 25.9614C12.1688 27.7389 15.2429 28.5744 18.3257 28.3143C21.4084 28.0541 24.2925 26.716 26.458 24.5452C28.6232 22.3747 29.9273 19.515 30.1385 16.4835C30.3497 13.452 29.4545 10.4444 27.6116 8.00372C25.7684 5.56268 23.0981 3.84895 20.0809 3.17594ZM12.8199 12.7448L10.9999 13.7528V11.9608L13.3799 10.5608H14.7099V20.3608H12.8199V12.7448ZM19.2052 20.5008C18.0712 20.5008 17.0912 20.0948 16.2372 19.2408L17.5252 18.0368C17.9452 18.4848 18.5472 18.8208 19.2052 18.8208C19.6392 18.8208 20.0592 18.6668 20.3812 18.3728C20.7172 18.0648 20.9272 17.6168 20.9272 17.1128C20.9272 16.5808 20.7032 16.1048 20.3252 15.7828C20.0172 15.5168 19.5972 15.3908 19.1352 15.3908C18.6592 15.3908 18.1132 15.5728 17.6932 15.9228L16.5172 15.7548L17.1472 10.5608H22.3272V12.2408H18.6872L18.5332 13.7808C18.7292 13.7388 19.0232 13.7108 19.2892 13.7108C20.0452 13.7108 20.8852 13.8928 21.5712 14.4528C22.3412 15.0688 22.8172 16.0628 22.8172 17.1128C22.8172 19.0448 21.1792 20.5008 19.2052 20.5008Z" fill="white"/>
</svg>
