<svg width="11" height="17" viewBox="0 0 11 17" fill="none" xmlns="http://www.w3.org/2000/svg">
<path d="M3.6363 16.9038H1.47157C1.2802 16.9038 1.09667 16.8272 0.961344 16.6908C0.826023 16.5544 0.75 16.3694 0.75 16.1765V1.63108C0.75 1.4382 0.826023 1.25321 0.961344 1.11682C1.09667 0.980432 1.2802 0.903809 1.47157 0.903809H3.6363C3.82767 0.903809 4.01121 0.980432 4.14653 1.11682C4.28185 1.25321 4.35787 1.4382 4.35787 1.63108V16.1765C4.35787 16.3694 4.28185 16.5544 4.14653 16.6908C4.01121 16.8272 3.82767 16.9038 3.6363 16.9038ZM10.1305 16.9038H7.96574C7.77437 16.9038 7.59083 16.8272 7.45551 16.6908C7.32019 16.5544 7.24417 16.3694 7.24417 16.1765V1.63108C7.24417 1.4382 7.32019 1.25321 7.45551 1.11682C7.59083 0.980432 7.77437 0.903809 7.96574 0.903809H10.1305C10.3218 0.903809 10.5054 0.980432 10.6407 1.11682C10.776 1.25321 10.852 1.4382 10.852 1.63108V16.1765C10.852 16.3694 10.776 16.5544 10.6407 16.6908C10.5054 16.8272 10.3218 16.9038 10.1305 16.9038Z" fill="white"/>
</svg>
