<svg width="15" height="16" viewBox="0 0 15 16" fill="none" xmlns="http://www.w3.org/2000/svg">
<path d="M1.76479 16C2.07483 15.9994 2.37922 15.9162 2.64718 15.7589L13.3246 9.53996C13.5929 9.3837 13.8157 9.15895 13.9705 8.88832C14.1254 8.61769 14.207 8.31069 14.207 7.9982C14.207 7.6857 14.1254 7.37871 13.9705 7.10807C13.8157 6.83744 13.5929 6.6127 13.3246 6.45644L2.64718 0.238518C2.37886 0.0822421 2.0745 -2.03287e-05 1.76467 3.76821e-09C1.45485 2.03363e-05 1.15049 0.0823233 0.882194 0.238634C0.613899 0.394946 0.391124 0.619756 0.236265 0.890464C0.0814051 1.16117 -8.05966e-05 1.46824 5.98184e-08 1.78079V14.2166C0.00079702 14.6888 0.186889 15.1415 0.517592 15.4757C0.848295 15.8099 1.2967 15.9984 1.76479 16Z" fill="white"/>
</svg>
