<svg width="16" height="16" viewBox="0 0 40 40" fill="none" xmlns="http://www.w3.org/2000/svg">
<g clip-path="url(#clip0_618_11525)">
<path fill-rule="evenodd" clip-rule="evenodd" d="M35.4902 5.03511C35.0657 4.37008 34.1825 4.17508 33.5174 4.59957C32.8524 5.02405 32.6574 5.90727 33.0819 6.5723C35.6454 10.5885 37.1431 14.2925 37.1431 20.0889C37.1431 25.892 35.6412 29.6811 33.0895 33.5938C32.6585 34.2546 32.8448 35.1397 33.5057 35.5707C34.1665 36.0017 35.0516 35.8154 35.4826 35.1545C38.2878 30.8532 40.0001 26.5301 40.0001 20.0889C40.0001 13.6412 38.2836 9.41147 35.4902 5.03511ZM18.822 6.03482C18.4686 5.85643 18.0726 5.77945 17.6781 5.81242C17.2836 5.84539 16.9059 5.98702 16.5869 6.2216C16.567 6.23625 16.5475 6.2514 16.5284 6.26706L8.37042 12.9463H2.14278C1.57449 12.9463 1.02946 13.1721 0.627607 13.5739C0.225757 13.9758 0 14.5208 0 15.0891V25.0887C0 25.657 0.225757 26.2021 0.627607 26.6039C1.02946 27.0058 1.57449 27.2315 2.14278 27.2315H8.36133L8.36664 27.2315L8.37038 27.2315L16.5284 33.9108C16.5475 33.9264 16.567 33.9416 16.5869 33.9562C16.9059 34.1908 17.2836 34.3324 17.6781 34.3654C18.0726 34.3984 18.4686 34.3214 18.822 34.143C19.1755 33.9646 19.4726 33.6918 19.6804 33.3548C19.8882 33.0178 19.9986 32.6299 19.9993 32.234L19.9993 32.2314V7.94646L19.9993 7.94387C19.9986 7.54795 19.8882 7.15999 19.6804 6.823C19.4726 6.48602 19.1755 6.2132 18.822 6.03482ZM10.1785 15.1584L17.1423 9.45692V30.7209L10.1716 25.0137L10.1646 25.008C9.653 24.5946 9.01422 24.3708 8.35657 24.3745H2.85705V15.8033H8.38826C9.04256 15.8067 9.67683 15.5782 10.1785 15.1584ZM26.9851 13.7252C26.6263 13.0226 25.7658 12.7439 25.0632 13.1028C24.3605 13.4616 24.0819 14.3221 24.4407 15.0247C25.2468 16.603 25.7129 18.2514 25.7129 20.0891C25.7129 21.8931 25.2263 23.5902 24.4365 25.1617C24.0822 25.8666 24.3665 26.7253 25.0714 27.0795C25.7764 27.4338 26.635 27.1496 26.9893 26.4446C27.9388 24.5555 28.57 22.4206 28.57 20.0891C28.57 17.7341 27.9647 15.6432 26.9851 13.7252ZM29.2787 8.85549C29.96 8.45774 30.8348 8.68764 31.2326 9.36899C33.1069 12.5797 34.2844 15.4881 34.2844 20.0888C34.2844 24.6964 33.0557 27.6341 31.2376 30.7999C30.8447 31.4841 29.9716 31.7202 29.2874 31.3273C28.6033 30.9344 28.3672 30.0612 28.7601 29.3771C30.4205 26.4859 31.4274 24.0417 31.4274 20.0888C31.4274 16.1292 30.4622 13.7164 28.7652 10.8094C28.3674 10.128 28.5973 9.25324 29.2787 8.85549Z" fill="white"/>
</g>
<defs>
<clipPath id="clip0_618_11525">
<rect width="40" height="40" fill="white"/>
</clipPath>
</defs>
</svg>
