<svg width="11" height="16" viewBox="0 0 40 40" fill="none" xmlns="http://www.w3.org/2000/svg">
<g clip-path="url(#clip0_619_11703)">
<path fill-rule="evenodd" clip-rule="evenodd" d="M31.0024 0.0104236C31.5548 -0.035742 32.1092 0.0720424 32.6041 0.321814C33.099 0.571585 33.515 0.953581 33.806 1.42542C34.097 1.89725 34.2515 2.44047 34.2525 2.99482L34.2525 2.99846V37.0015L34.2525 37.0052C34.2515 37.5595 34.097 38.1028 33.806 38.5746C33.515 39.0464 33.099 39.4284 32.6041 39.6782C32.1092 39.928 31.5548 40.0357 31.0024 39.9896C30.45 39.9434 29.9212 39.7451 29.4746 39.4167C29.4467 39.3961 29.4194 39.3749 29.3926 39.353L17.97 30.0009C17.9683 30.0009 17.9665 30.0009 17.9648 30.0009C17.9623 30.0009 17.9598 30.0009 17.9573 30.0009H9.25027C8.45455 30.0009 7.69142 29.6848 7.12876 29.1222C6.5661 28.5595 6.25 27.7964 6.25 27.0006V12.9994C6.25 12.2036 6.5661 11.4405 7.12876 10.8779C7.69142 10.3152 8.45455 9.99909 9.25027 9.99909H17.97L29.3926 0.646999C29.4194 0.625076 29.4467 0.603851 29.4746 0.583347C29.9212 0.254898 30.45 0.0565892 31.0024 0.0104236ZM30.2522 5.11336L20.5017 13.0964C19.7992 13.6842 18.9112 14.0042 17.995 13.9995H10.2504V26.0005H17.9507C18.8715 25.9954 19.7659 26.3087 20.4822 26.8876C20.4855 26.8903 20.4888 26.893 20.492 26.8956L30.2522 34.8866V5.11336Z" fill="white"/>
</g>
<defs>
<clipPath id="clip0_619_11703">
<rect width="40" height="40" fill="white"/>
</clipPath>
</defs>
</svg>

